<svg xmlns="http://www.w3.org/2000/svg" xmlns:xlink="http://www.w3.org/1999/xlink" width="557" zoomAndPan="magnify" viewBox="0 0 417.75 394.499988" height="526" preserveAspectRatio="xMidYMid meet" version="1.0"><defs><g/><clipPath id="55132a5454"><path d="M 87.890625 75.007812 L 332.226562 75.007812 L 332.226562 319.34375 L 87.890625 319.34375 Z M 87.890625 75.007812 " clip-rule="nonzero"/></clipPath><clipPath id="8582508021"><path d="M 210.058594 75.007812 C 142.585938 75.007812 87.890625 129.703125 87.890625 197.175781 C 87.890625 264.648438 142.585938 319.34375 210.058594 319.34375 C 277.527344 319.34375 332.226562 264.648438 332.226562 197.175781 C 332.226562 129.703125 277.527344 75.007812 210.058594 75.007812 " clip-rule="nonzero"/></clipPath><clipPath id="42df1a305c"><path d="M 94.328125 81.449219 L 325.925781 81.449219 L 325.925781 313.042969 L 94.328125 313.042969 Z M 94.328125 81.449219 " clip-rule="nonzero"/></clipPath><clipPath id="25400dbedc"><path d="M 210.128906 81.449219 C 146.175781 81.449219 94.328125 133.292969 94.328125 197.246094 C 94.328125 261.199219 146.175781 313.042969 210.128906 313.042969 C 274.082031 313.042969 325.925781 261.199219 325.925781 197.246094 C 325.925781 133.292969 274.082031 81.449219 210.128906 81.449219 " clip-rule="nonzero"/></clipPath><clipPath id="8cff867669"><path d="M 128.28125 115.398438 L 291.671875 115.398438 L 291.671875 278.789062 L 128.28125 278.789062 Z M 128.28125 115.398438 " clip-rule="nonzero"/></clipPath><clipPath id="2fe1677683"><path d="M 209.976562 115.398438 C 164.855469 115.398438 128.28125 151.976562 128.28125 197.09375 C 128.28125 242.214844 164.855469 278.789062 209.976562 278.789062 C 255.09375 278.789062 291.671875 242.214844 291.671875 197.09375 C 291.671875 151.976562 255.09375 115.398438 209.976562 115.398438 " clip-rule="nonzero"/></clipPath><clipPath id="095f500e23"><path d="M 134.796875 121.914062 L 285.445312 121.914062 L 285.445312 272.5625 L 134.796875 272.5625 Z M 134.796875 121.914062 " clip-rule="nonzero"/></clipPath><clipPath id="c0bfc656ff"><path d="M 210.121094 121.914062 C 168.519531 121.914062 134.796875 155.636719 134.796875 197.238281 C 134.796875 238.839844 168.519531 272.5625 210.121094 272.5625 C 251.722656 272.5625 285.445312 238.839844 285.445312 197.238281 C 285.445312 155.636719 251.722656 121.914062 210.121094 121.914062 " clip-rule="nonzero"/></clipPath><clipPath id="45fc79ad54"><path d="M 140.59375 130 L 279.25 130 L 279.25 264 L 140.59375 264 Z M 140.59375 130 " clip-rule="nonzero"/></clipPath><clipPath id="2aff3b6c23"><path d="M 169.109375 142.292969 L 250.804688 142.292969 L 250.804688 236.730469 L 169.109375 236.730469 Z M 169.109375 142.292969 " clip-rule="nonzero"/></clipPath><clipPath id="4577293655"><path d="M 288.636719 179.152344 L 342 179.152344 L 342 215.066406 L 288.636719 215.066406 Z M 288.636719 179.152344 " clip-rule="nonzero"/></clipPath><clipPath id="4e7e66f4b7"><path d="M 288.636719 179.152344 L 342.175781 179.152344 L 335.984375 197.109375 L 342.175781 215.066406 L 288.636719 215.066406 L 288.636719 179.152344 " clip-rule="nonzero"/></clipPath><clipPath id="e5d48d21a6"><path d="M 78 179.160156 L 131.351562 179.160156 L 131.351562 215.074219 L 78 215.074219 Z M 78 179.160156 " clip-rule="nonzero"/></clipPath><clipPath id="ac6469e72e"><path d="M 131.351562 215.074219 L 77.816406 215.074219 L 84.007812 197.117188 L 77.816406 179.160156 L 131.351562 179.160156 L 131.351562 215.074219 " clip-rule="nonzero"/></clipPath></defs><g clip-path="url(#55132a5454)"><g clip-path="url(#8582508021)"><path stroke-linecap="butt" transform="matrix(0.749858, 0, 0, 0.749858, 87.888864, 75.007818)" fill="none" stroke-linejoin="miter" d="M 162.923764 -0.00000739232 C 72.943217 -0.00000739232 0.00234906 72.940861 0.00234906 162.921408 C 0.00234906 252.901955 72.943217 325.842823 162.923764 325.842823 C 252.899102 325.842823 325.845179 252.901955 325.845179 162.921408 C 325.845179 72.940861 252.899102 -0.00000739232 162.923764 -0.00000739232 " stroke="#edbf5f" stroke-width="10" stroke-opacity="1" stroke-miterlimit="4"/></g></g><g clip-path="url(#42df1a305c)"><g clip-path="url(#25400dbedc)"><path stroke-linecap="butt" transform="matrix(0.750334, 0, 0, 0.750334, 94.329639, 81.448601)" fill="none" stroke-linejoin="miter" d="M 154.330396 0.000823626 C 69.097464 0.000823626 -0.00201784 69.095099 -0.00201784 154.328032 C -0.00201784 239.560964 69.097464 308.65524 154.330396 308.65524 C 239.563329 308.65524 308.657605 239.560964 308.657605 154.328032 C 308.657605 69.095099 239.563329 0.000823626 154.330396 0.000823626 " stroke="#edbf5f" stroke-width="6" stroke-opacity="1" stroke-miterlimit="4"/></g></g><g clip-path="url(#8cff867669)"><g clip-path="url(#2fe1677683)"><path stroke-linecap="butt" transform="matrix(0.749338, 0, 0, 0.749338, 128.280684, 115.399645)" fill="none" stroke-linejoin="miter" d="M 109.024116 -0.001612 C 48.809483 -0.001612 0.000755693 48.812328 0.000755693 109.021748 C 0.000755693 169.236381 48.809483 218.045108 109.024116 218.045108 C 169.233536 218.045108 218.047476 169.236381 218.047476 109.021748 C 218.047476 48.812328 169.233536 -0.001612 109.024116 -0.001612 " stroke="#edbf5f" stroke-width="10" stroke-opacity="1" stroke-miterlimit="4"/></g></g><g clip-path="url(#095f500e23)"><g clip-path="url(#c0bfc656ff)"><path stroke-linecap="butt" transform="matrix(0.750724, 0, 0, 0.750724, 134.795509, 121.914463)" fill="none" stroke-linejoin="miter" d="M 100.337217 -0.000533623 C 44.921982 -0.000533623 0.00182012 44.919628 0.00182012 100.334863 C 0.00182012 155.750098 44.921982 200.67026 100.337217 200.67026 C 155.752452 200.67026 200.672614 155.750098 200.672614 100.334863 C 200.672614 44.919628 155.752452 -0.000533623 100.337217 -0.000533623 " stroke="#edbf5f" stroke-width="6" stroke-opacity="1" stroke-miterlimit="4"/></g></g><g clip-path="url(#45fc79ad54)"><path fill="#edbf5f" d="M 250.394531 148.410156 C 263.617188 159.792969 271.988281 176.652344 271.988281 195.46875 C 271.988281 229.75 244.199219 257.539062 209.921875 257.539062 C 175.640625 257.539062 147.851562 229.75 147.851562 195.46875 C 147.851562 176.652344 156.226562 159.792969 169.449219 148.410156 C 156.480469 159.710938 148.28125 176.347656 148.28125 194.902344 C 148.28125 228.945312 175.878906 256.546875 209.921875 256.546875 C 243.964844 256.546875 271.5625 228.945312 271.5625 194.902344 C 271.5625 176.347656 263.363281 159.710938 250.394531 148.410156 Z M 215.398438 255.648438 C 215.609375 252.457031 216.949219 249.183594 219.398438 246.484375 C 221.851562 243.789062 224.980469 242.144531 228.132812 241.625 C 227.921875 244.8125 226.585938 248.085938 224.132812 250.785156 C 221.683594 253.484375 218.554688 255.132812 215.398438 255.648438 Z M 223.890625 134.863281 C 223.339844 135.742188 222.457031 136.46875 221.34375 136.863281 C 220.230469 137.257812 219.082031 137.25 218.105469 136.910156 C 218.652344 136.035156 219.539062 135.304688 220.652344 134.910156 C 221.765625 134.515625 222.910156 134.527344 223.890625 134.863281 Z M 224.039062 134.011719 C 223.839844 132.996094 223.273438 132 222.375 131.230469 C 221.480469 130.464844 220.40625 130.0625 219.371094 130.027344 C 219.570312 131.042969 220.132812 132.039062 221.03125 132.808594 C 221.929688 133.574219 223.003906 133.976562 224.039062 134.011719 Z M 226.8125 253.628906 C 226.410156 250.574219 227.054688 247.226562 228.863281 244.210938 C 230.667969 241.195312 233.316406 239.046875 236.199219 237.964844 C 236.601562 241.019531 235.957031 244.367188 234.152344 247.382812 C 232.34375 250.398438 229.695312 252.542969 226.8125 253.628906 Z M 228.085938 255.859375 C 230.46875 257.8125 233.652344 259.03125 237.164062 259.089844 C 240.679688 259.148438 243.902344 258.03125 246.347656 256.15625 C 243.964844 254.203125 240.78125 252.980469 237.265625 252.925781 C 233.75 252.867188 230.527344 253.980469 228.085938 255.859375 Z M 237.304688 249.648438 C 236.359375 246.835938 236.351562 243.554688 237.503906 240.371094 C 238.65625 237.1875 240.761719 234.667969 243.285156 233.109375 C 244.230469 235.925781 244.238281 239.207031 243.085938 242.390625 C 241.9375 245.574219 239.832031 248.09375 237.304688 249.648438 Z M 238.921875 251.519531 C 241.53125 252.929688 244.765625 253.492188 248.097656 252.898438 C 251.429688 252.304688 254.269531 250.65625 256.230469 248.433594 C 253.621094 247.023438 250.386719 246.457031 247.054688 247.054688 C 243.722656 247.648438 240.882812 249.296875 238.921875 251.519531 Z M 246.570312 243.898438 C 245.292969 241.351562 244.839844 238.226562 245.503906 235.039062 C 246.167969 231.855469 247.832031 229.171875 250.027344 227.347656 C 251.304688 229.894531 251.757812 233.019531 251.09375 236.207031 C 250.429688 239.394531 248.765625 242.074219 246.570312 243.898438 Z M 248.363281 245.464844 C 251.039062 246.449219 254.195312 246.550781 257.285156 245.53125 C 260.378906 244.515625 262.855469 242.5625 264.425781 240.175781 C 261.746094 239.191406 258.59375 239.089844 255.5 240.109375 C 252.410156 241.125 249.929688 243.078125 248.363281 245.464844 Z M 254.496094 236.960938 C 252.832031 234.789062 251.847656 231.921875 251.902344 228.796875 C 251.957031 225.675781 253.046875 222.847656 254.789062 220.734375 C 256.453125 222.90625 257.4375 225.773438 257.382812 228.898438 C 257.328125 232.019531 256.238281 234.847656 254.496094 236.960938 Z M 256.464844 238.117188 C 259.167969 238.566406 262.160156 238.09375 264.894531 236.582031 C 267.628906 235.070312 269.613281 232.78125 270.667969 230.253906 C 267.964844 229.800781 264.972656 230.273438 262.238281 231.785156 C 259.503906 233.300781 257.515625 235.585938 256.464844 238.117188 Z M 260.902344 228.953125 C 259.03125 227.113281 257.707031 224.527344 257.34375 221.554688 C 256.976562 218.582031 257.632812 215.753906 259 213.511719 C 260.871094 215.351562 262.191406 217.941406 262.558594 220.910156 C 262.921875 223.882812 262.269531 226.714844 260.902344 228.953125 Z M 262.921875 229.78125 C 265.546875 229.847656 268.324219 229 270.714844 227.195312 C 273.105469 225.394531 274.6875 222.957031 275.34375 220.417969 C 272.722656 220.351562 269.945312 221.199219 267.554688 223.003906 C 265.164062 224.804688 263.582031 227.242188 262.921875 229.78125 Z M 265.84375 220.339844 C 263.753906 218.953125 262.042969 216.761719 261.160156 214.035156 C 260.277344 211.3125 260.378906 208.535156 261.257812 206.183594 C 263.347656 207.574219 265.058594 209.761719 265.941406 212.488281 C 266.824219 215.214844 266.722656 217.988281 265.84375 220.339844 Z M 267.894531 220.753906 C 270.371094 220.339844 272.824219 219.035156 274.742188 216.910156 C 276.660156 214.78125 277.703125 212.207031 277.859375 209.703125 C 275.382812 210.117188 272.929688 211.417969 271.011719 213.546875 C 269.09375 215.671875 268.050781 218.246094 267.894531 220.753906 Z M 269.160156 211.242188 C 266.996094 210.21875 265.078125 208.382812 263.871094 205.933594 C 262.660156 203.480469 262.375 200.84375 262.882812 198.5 C 265.046875 199.527344 266.964844 201.359375 268.171875 203.8125 C 269.382812 206.261719 269.667969 208.898438 269.160156 211.242188 Z M 271.15625 211.347656 C 273.4375 210.617188 275.578125 209.050781 277.097656 206.777344 C 278.617188 204.503906 279.246094 201.925781 279.050781 199.539062 C 276.769531 200.273438 274.628906 201.839844 273.109375 204.113281 C 271.589844 206.386719 270.960938 208.960938 271.15625 211.347656 Z M 270.988281 202 C 268.804688 201.335938 266.742188 199.875 265.261719 197.734375 C 263.785156 195.589844 263.144531 193.148438 263.296875 190.871094 C 265.480469 191.535156 267.542969 192.996094 269.023438 195.136719 C 270.503906 197.28125 271.140625 199.722656 270.988281 202 Z M 272.878906 201.824219 C 274.929688 200.816406 276.726562 199.042969 277.84375 196.691406 C 278.957031 194.335938 279.191406 191.824219 278.675781 189.601562 C 276.628906 190.605469 274.832031 192.382812 273.714844 194.734375 C 272.601562 197.085938 272.363281 199.601562 272.878906 201.824219 Z M 271.410156 192.839844 C 269.265625 192.519531 267.125 191.433594 265.433594 189.625 C 263.746094 187.816406 262.808594 185.609375 262.632812 183.445312 C 264.777344 183.765625 266.917969 184.855469 268.609375 186.660156 C 270.296875 188.46875 271.234375 190.679688 271.410156 192.839844 Z M 273.164062 192.410156 C 274.949219 191.179688 276.390625 189.261719 277.113281 186.894531 C 277.835938 184.53125 277.707031 182.132812 276.910156 180.117188 C 275.125 181.347656 273.683594 183.265625 272.960938 185.628906 C 272.238281 187.996094 272.367188 190.394531 273.164062 192.410156 Z M 270.519531 183.945312 C 268.46875 183.9375 266.3125 183.210938 264.480469 181.75 C 262.648438 180.289062 261.464844 178.347656 261.003906 176.34375 C 263.058594 176.347656 265.214844 177.074219 267.046875 178.535156 C 268.878906 180 270.058594 181.941406 270.519531 183.945312 Z M 272.105469 183.300781 C 273.613281 181.902344 274.703125 179.90625 275.050781 177.589844 C 275.402344 175.269531 274.953125 173.042969 273.929688 171.257812 C 272.425781 172.660156 271.335938 174.65625 270.988281 176.972656 C 270.636719 179.289062 271.085938 181.519531 272.105469 183.300781 Z M 268.324219 175.488281 C 266.390625 175.664062 264.300781 175.171875 262.449219 173.957031 C 260.597656 172.742188 259.3125 171.019531 258.703125 169.175781 C 260.636719 169 262.726562 169.492188 264.578125 170.707031 C 266.429688 171.921875 267.714844 173.644531 268.324219 175.488281 Z M 269.757812 174.742188 C 271.050781 173.292969 271.898438 171.320312 272.023438 169.109375 C 272.152344 166.898438 271.53125 164.84375 270.414062 163.257812 C 269.121094 164.707031 268.273438 166.679688 268.148438 168.890625 C 268.019531 171.101562 268.640625 173.15625 269.757812 174.742188 Z M 265.117188 167.621094 C 263.339844 168.039062 261.328125 167.855469 259.441406 166.964844 C 257.554688 166.078125 256.132812 164.640625 255.324219 163.003906 C 257.101562 162.585938 259.117188 162.769531 261 163.65625 C 262.886719 164.546875 264.308594 165.980469 265.117188 167.621094 Z M 266.359375 166.738281 C 267.371094 165.214844 267.90625 163.265625 267.730469 161.1875 C 267.558594 159.109375 266.710938 157.273438 265.460938 155.945312 C 264.445312 157.464844 263.914062 159.414062 264.085938 161.492188 C 264.261719 163.570312 265.109375 165.40625 266.359375 166.738281 Z M 260.972656 160.433594 C 259.375 161.050781 257.480469 161.136719 255.613281 160.550781 C 253.75 159.96875 252.242188 158.816406 251.28125 157.398438 C 252.878906 156.785156 254.773438 156.695312 256.640625 157.28125 C 258.503906 157.863281 260.007812 159.015625 260.972656 160.433594 Z M 262.011719 159.453125 C 262.757812 157.910156 263 156.03125 262.574219 154.125 C 262.148438 152.214844 261.125 150.621094 259.792969 149.542969 C 259.046875 151.085938 258.800781 152.964844 259.230469 154.871094 C 259.65625 156.78125 260.679688 158.378906 262.011719 159.453125 Z M 256.03125 154.003906 C 254.628906 154.773438 252.886719 155.09375 251.085938 154.789062 C 249.289062 154.480469 247.75 153.605469 246.683594 152.410156 C 248.085938 151.640625 249.828125 151.324219 251.625 151.628906 C 253.425781 151.9375 254.960938 152.8125 256.03125 154.003906 Z M 256.871094 152.96875 C 257.367188 151.449219 257.359375 149.675781 256.722656 147.964844 C 256.089844 146.253906 254.941406 144.90625 253.574219 144.078125 C 253.078125 145.597656 253.085938 147.367188 253.722656 149.078125 C 254.355469 150.789062 255.5 152.140625 256.871094 152.96875 Z M 250.371094 148.433594 C 249.132812 149.253906 247.546875 149.6875 245.855469 149.546875 C 244.164062 149.40625 242.671875 148.714844 241.589844 147.695312 C 242.828125 146.871094 244.414062 146.441406 246.105469 146.582031 C 247.792969 146.722656 249.289062 147.414062 250.371094 148.433594 Z M 251.066406 147.40625 C 251.40625 145.960938 251.257812 144.320312 250.535156 142.785156 C 249.8125 141.253906 248.644531 140.09375 247.3125 139.433594 C 246.96875 140.882812 247.121094 142.519531 247.84375 144.054688 C 248.5625 145.589844 249.734375 146.746094 251.066406 147.40625 Z M 244.238281 143.699219 C 243.203125 144.605469 241.804688 145.195312 240.238281 145.269531 C 238.671875 145.34375 237.222656 144.894531 236.105469 144.09375 C 237.140625 143.1875 238.539062 142.597656 240.105469 142.523438 C 241.671875 142.449219 243.121094 142.898438 244.238281 143.699219 Z M 244.75 142.675781 C 244.886719 141.308594 244.550781 139.828125 243.703125 138.511719 C 242.855469 137.191406 241.644531 136.273438 240.34375 135.832031 C 240.207031 137.199219 240.542969 138.679688 241.390625 139.996094 C 242.238281 141.316406 243.449219 142.234375 244.75 142.675781 Z M 237.675781 139.867188 C 236.800781 140.773438 235.5625 141.417969 234.136719 141.605469 C 232.714844 141.792969 231.351562 141.492188 230.269531 140.84375 C 231.148438 139.9375 232.382812 139.292969 233.808594 139.105469 C 235.234375 138.917969 236.597656 139.21875 237.675781 139.867188 Z M 238.066406 138.890625 C 238.089844 137.632812 237.667969 136.300781 236.792969 135.160156 C 235.917969 134.019531 234.742188 133.269531 233.519531 132.964844 C 233.5 134.226562 233.917969 135.554688 234.792969 136.695312 C 235.667969 137.835938 236.84375 138.585938 238.066406 138.890625 Z M 230.875 136.914062 C 230.191406 137.835938 229.152344 138.5625 227.886719 138.902344 C 226.621094 139.242188 225.355469 139.128906 224.304688 138.671875 C 224.988281 137.75 226.027344 137.019531 227.292969 136.683594 C 228.558594 136.34375 229.824219 136.457031 230.875 136.914062 Z M 231.113281 135.988281 C 230.984375 134.847656 230.445312 133.695312 229.523438 132.769531 C 228.597656 131.84375 227.445312 131.304688 226.304688 131.175781 C 226.433594 132.316406 226.972656 133.464844 227.898438 134.390625 C 228.820312 135.320312 229.972656 135.855469 231.113281 135.988281 Z M 216.242188 258.171875 C 218.265625 260.644531 221.253906 262.535156 224.816406 263.304688 C 228.378906 264.078125 231.882812 263.601562 234.75 262.191406 C 232.726562 259.71875 229.734375 257.828125 226.175781 257.054688 C 222.613281 256.285156 219.109375 256.761719 216.242188 258.171875 Z M 204.441406 255.648438 C 204.230469 252.457031 202.894531 249.183594 200.441406 246.484375 C 197.992188 243.789062 194.863281 242.144531 191.710938 241.625 C 191.921875 244.8125 193.257812 248.085938 195.707031 250.785156 C 198.160156 253.484375 201.289062 255.132812 204.441406 255.648438 Z M 195.953125 134.863281 C 196.5 135.742188 197.386719 136.46875 198.5 136.863281 C 199.613281 137.257812 200.757812 137.25 201.738281 136.910156 C 201.1875 136.035156 200.304688 135.304688 199.191406 134.910156 C 198.078125 134.515625 196.929688 134.527344 195.953125 134.863281 Z M 195.804688 134.011719 C 196.003906 132.996094 196.566406 132 197.464844 131.230469 C 198.363281 130.464844 199.4375 130.0625 200.472656 130.027344 C 200.273438 131.042969 199.710938 132.039062 198.8125 132.808594 C 197.914062 133.574219 196.839844 133.976562 195.804688 134.011719 Z M 193.03125 253.628906 C 193.433594 250.574219 192.789062 247.226562 190.980469 244.210938 C 189.171875 241.195312 186.527344 239.046875 183.640625 237.964844 C 183.238281 241.019531 183.882812 244.367188 185.691406 247.382812 C 187.496094 250.398438 190.148438 252.542969 193.03125 253.628906 Z M 191.757812 255.859375 C 189.375 257.8125 186.191406 259.03125 182.675781 259.089844 C 179.164062 259.148438 175.941406 258.03125 173.496094 256.15625 C 175.878906 254.203125 179.0625 252.980469 182.574219 252.925781 C 186.089844 252.867188 189.3125 253.980469 191.757812 255.859375 Z M 182.535156 249.648438 C 183.480469 246.835938 183.488281 243.554688 182.339844 240.371094 C 181.1875 237.1875 179.082031 234.667969 176.554688 233.109375 C 175.613281 235.925781 175.605469 239.207031 176.753906 242.390625 C 177.90625 245.574219 180.011719 248.09375 182.535156 249.648438 Z M 180.921875 251.519531 C 178.308594 252.929688 175.078125 253.492188 171.746094 252.898438 C 168.414062 252.304688 165.574219 250.65625 163.609375 248.433594 C 166.222656 247.023438 169.457031 246.457031 172.785156 247.054688 C 176.121094 247.648438 178.957031 249.296875 180.921875 251.519531 Z M 173.269531 243.898438 C 174.550781 241.351562 175.003906 238.226562 174.339844 235.039062 C 173.671875 231.855469 172.011719 229.171875 169.816406 227.347656 C 168.535156 229.894531 168.085938 233.019531 168.75 236.207031 C 169.414062 239.394531 171.078125 242.074219 173.269531 243.898438 Z M 171.480469 245.464844 C 168.804688 246.449219 165.648438 246.550781 162.558594 245.53125 C 159.464844 244.515625 156.984375 242.5625 155.417969 240.175781 C 158.09375 239.191406 161.25 239.089844 164.339844 240.109375 C 167.433594 241.125 169.914062 243.078125 171.480469 245.464844 Z M 165.34375 236.960938 C 167.011719 234.789062 167.996094 231.921875 167.941406 228.796875 C 167.882812 225.675781 166.796875 222.847656 165.054688 220.734375 C 163.390625 222.90625 162.402344 225.773438 162.460938 228.898438 C 162.515625 232.019531 163.605469 234.847656 165.34375 236.960938 Z M 163.375 238.117188 C 160.675781 238.566406 157.683594 238.09375 154.949219 236.582031 C 152.214844 235.070312 150.226562 232.78125 149.175781 230.253906 C 151.875 229.800781 154.871094 230.273438 157.605469 231.785156 C 160.335938 233.300781 162.324219 235.585938 163.375 238.117188 Z M 158.941406 228.953125 C 160.8125 227.113281 162.132812 224.527344 162.5 221.554688 C 162.863281 218.582031 162.210938 215.753906 160.84375 213.511719 C 158.972656 215.351562 157.652344 217.941406 157.285156 220.910156 C 156.917969 223.882812 157.574219 226.714844 158.941406 228.953125 Z M 156.917969 229.78125 C 154.292969 229.847656 151.515625 229 149.128906 227.195312 C 146.734375 225.394531 145.15625 222.957031 144.496094 220.417969 C 147.121094 220.351562 149.898438 221.199219 152.289062 223.003906 C 154.679688 224.804688 156.261719 227.242188 156.917969 229.78125 Z M 154 220.339844 C 156.089844 218.953125 157.800781 216.761719 158.683594 214.035156 C 159.566406 211.3125 159.464844 208.535156 158.585938 206.183594 C 156.492188 207.574219 154.785156 209.761719 153.902344 212.488281 C 153.019531 215.214844 153.121094 217.988281 154 220.339844 Z M 151.949219 220.753906 C 149.472656 220.339844 147.019531 219.035156 145.101562 216.910156 C 143.179688 214.78125 142.140625 212.207031 141.980469 209.703125 C 144.457031 210.117188 146.914062 211.417969 148.832031 213.546875 C 150.75 215.671875 151.789062 218.246094 151.949219 220.753906 Z M 150.679688 211.242188 C 152.847656 210.21875 154.761719 208.382812 155.972656 205.933594 C 157.179688 203.480469 157.46875 200.84375 156.960938 198.5 C 154.792969 199.527344 152.878906 201.359375 151.667969 203.8125 C 150.460938 206.261719 150.171875 208.898438 150.679688 211.242188 Z M 148.6875 211.347656 C 146.40625 210.617188 144.265625 209.050781 142.746094 206.777344 C 141.226562 204.503906 140.597656 201.925781 140.792969 199.539062 C 143.074219 200.273438 145.214844 201.839844 146.734375 204.113281 C 148.253906 206.386719 148.882812 208.960938 148.6875 211.347656 Z M 148.855469 202 C 151.039062 201.335938 153.097656 199.875 154.578125 197.734375 C 156.058594 195.589844 156.695312 193.148438 156.542969 190.871094 C 154.359375 191.535156 152.300781 192.996094 150.820312 195.136719 C 149.339844 197.28125 148.703125 199.722656 148.855469 202 Z M 146.960938 201.824219 C 144.914062 200.816406 143.113281 199.042969 142 196.691406 C 140.882812 194.335938 140.648438 191.824219 141.164062 189.601562 C 143.214844 190.605469 145.011719 192.382812 146.128906 194.734375 C 147.242188 197.085938 147.476562 199.601562 146.960938 201.824219 Z M 148.433594 192.839844 C 150.578125 192.519531 152.71875 191.433594 154.40625 189.625 C 156.09375 187.816406 157.035156 185.609375 157.207031 183.445312 C 155.0625 183.765625 152.925781 184.855469 151.234375 186.660156 C 149.546875 188.46875 148.609375 190.679688 148.433594 192.839844 Z M 146.679688 192.410156 C 144.894531 191.179688 143.449219 189.261719 142.730469 186.894531 C 142.007812 184.53125 142.136719 182.132812 142.929688 180.117188 C 144.714844 181.347656 146.160156 183.265625 146.882812 185.628906 C 147.601562 187.996094 147.472656 190.394531 146.679688 192.410156 Z M 149.320312 183.945312 C 151.375 183.9375 153.53125 183.210938 155.363281 181.75 C 157.195312 180.289062 158.378906 178.347656 158.835938 176.34375 C 156.78125 176.347656 154.628906 177.074219 152.796875 178.535156 C 150.964844 180 149.78125 181.941406 149.320312 183.945312 Z M 147.734375 183.300781 C 146.230469 181.902344 145.140625 179.90625 144.789062 177.589844 C 144.4375 175.269531 144.890625 173.042969 145.910156 171.257812 C 147.414062 172.660156 148.503906 174.65625 148.855469 176.972656 C 149.207031 179.289062 148.757812 181.519531 147.734375 183.300781 Z M 151.519531 175.488281 C 153.453125 175.664062 155.542969 175.171875 157.394531 173.957031 C 159.246094 172.742188 160.527344 171.019531 161.136719 169.175781 C 159.203125 169 157.113281 169.492188 155.261719 170.707031 C 153.414062 171.921875 152.128906 173.644531 151.519531 175.488281 Z M 150.082031 174.742188 C 148.792969 173.292969 147.941406 171.320312 147.816406 169.109375 C 147.691406 166.898438 148.308594 164.84375 149.429688 163.257812 C 150.71875 164.707031 151.570312 166.679688 151.695312 168.890625 C 151.820312 171.101562 151.203125 173.15625 150.082031 174.742188 Z M 154.722656 167.621094 C 156.503906 168.039062 158.515625 167.855469 160.402344 166.964844 C 162.285156 166.078125 163.710938 164.640625 164.519531 163.003906 C 162.742188 162.585938 160.726562 162.769531 158.839844 163.65625 C 156.957031 164.546875 155.53125 165.980469 154.722656 167.621094 Z M 153.484375 166.738281 C 152.46875 165.214844 151.9375 163.265625 152.109375 161.1875 C 152.285156 159.109375 153.132812 157.273438 154.382812 155.945312 C 155.398438 157.464844 155.929688 159.414062 155.753906 161.492188 C 155.582031 163.570312 154.734375 165.40625 153.484375 166.738281 Z M 158.871094 160.433594 C 160.46875 161.050781 162.363281 161.136719 164.230469 160.550781 C 166.09375 159.96875 167.601562 158.816406 168.5625 157.398438 C 166.964844 156.785156 165.070312 156.695312 163.203125 157.28125 C 161.339844 157.863281 159.832031 159.015625 158.871094 160.433594 Z M 157.832031 159.453125 C 157.082031 157.910156 156.839844 156.03125 157.265625 154.125 C 157.695312 152.214844 158.71875 150.621094 160.050781 149.542969 C 160.796875 151.085938 161.039062 152.964844 160.613281 154.871094 C 160.1875 156.78125 159.164062 158.378906 157.832031 159.453125 Z M 163.8125 154.003906 C 165.214844 154.773438 166.957031 155.09375 168.753906 154.789062 C 170.554688 154.480469 172.089844 153.605469 173.160156 152.410156 C 171.757812 151.640625 170.015625 151.324219 168.214844 151.628906 C 166.417969 151.9375 164.878906 152.8125 163.8125 154.003906 Z M 162.972656 152.96875 C 162.476562 151.449219 162.484375 149.675781 163.121094 147.964844 C 163.753906 146.253906 164.898438 144.90625 166.269531 144.078125 C 166.765625 145.597656 166.753906 147.367188 166.121094 149.078125 C 165.488281 150.789062 164.339844 152.140625 162.972656 152.96875 Z M 169.472656 148.433594 C 170.710938 149.253906 172.296875 149.6875 173.988281 149.546875 C 175.675781 149.40625 177.171875 148.714844 178.253906 147.695312 C 177.015625 146.871094 175.429688 146.441406 173.738281 146.582031 C 172.046875 146.722656 170.554688 147.414062 169.472656 148.433594 Z M 168.777344 147.40625 C 168.4375 145.960938 168.585938 144.320312 169.308594 142.785156 C 170.03125 141.253906 171.199219 140.09375 172.53125 139.433594 C 172.871094 140.882812 172.722656 142.519531 172 144.054688 C 171.277344 145.589844 170.109375 146.746094 168.777344 147.40625 Z M 175.605469 143.699219 C 176.636719 144.605469 178.039062 145.195312 179.605469 145.269531 C 181.167969 145.34375 182.621094 144.894531 183.734375 144.09375 C 182.703125 143.1875 181.300781 142.597656 179.738281 142.523438 C 178.171875 142.449219 176.71875 142.898438 175.605469 143.699219 Z M 175.09375 142.675781 C 174.957031 141.308594 175.292969 139.828125 176.140625 138.511719 C 176.988281 137.191406 178.199219 136.273438 179.5 135.832031 C 179.632812 137.199219 179.300781 138.679688 178.453125 139.996094 C 177.605469 141.316406 176.394531 142.234375 175.09375 142.675781 Z M 182.164062 139.867188 C 183.039062 140.773438 184.277344 141.417969 185.703125 141.605469 C 187.128906 141.792969 188.492188 141.492188 189.570312 140.84375 C 188.695312 139.9375 187.460938 139.292969 186.03125 139.105469 C 184.609375 138.917969 183.246094 139.21875 182.164062 139.867188 Z M 181.773438 138.890625 C 181.753906 137.632812 182.171875 136.300781 183.046875 135.160156 C 183.921875 134.019531 185.101562 133.269531 186.324219 132.964844 C 186.34375 134.226562 185.925781 135.554688 185.050781 136.695312 C 184.175781 137.835938 182.996094 138.585938 181.773438 138.890625 Z M 188.964844 136.914062 C 189.648438 137.835938 190.691406 138.5625 191.957031 138.902344 C 193.21875 139.242188 194.484375 139.128906 195.539062 138.671875 C 194.855469 137.75 193.8125 137.019531 192.550781 136.683594 C 191.285156 136.34375 190.019531 136.457031 188.964844 136.914062 Z M 188.730469 135.988281 C 188.859375 134.847656 189.394531 133.695312 190.320312 132.769531 C 191.246094 131.84375 192.398438 131.304688 193.535156 131.175781 C 193.40625 132.316406 192.871094 133.464844 191.945312 134.390625 C 191.019531 135.320312 189.867188 135.855469 188.730469 135.988281 Z M 203.601562 258.171875 C 201.578125 260.644531 198.585938 262.535156 195.023438 263.304688 C 191.460938 264.078125 187.960938 263.601562 185.089844 262.191406 C 187.117188 259.71875 190.105469 257.828125 193.667969 257.054688 C 197.230469 256.285156 200.734375 256.761719 203.601562 258.171875 Z M 203.601562 258.171875 " fill-opacity="1" fill-rule="evenodd"/></g><g clip-path="url(#2aff3b6c23)"><path fill="#edbf5f" d="M 235.292969 176.476562 C 235.179688 177.347656 234.800781 178.027344 234.230469 178.597656 C 233.246094 179.5625 232.011719 180.035156 230.683594 180.261719 C 228.789062 180.585938 226.929688 180.46875 225.164062 179.617188 C 224.066406 179.089844 223.210938 178.3125 222.851562 177.082031 C 222.679688 176.511719 222.71875 176.4375 223.308594 176.476562 C 223.589844 176.492188 223.742188 176.417969 223.839844 176.132812 C 224.9375 172.726562 226.058594 169.316406 227.175781 165.925781 C 227.195312 165.851562 227.195312 165.777344 227.214844 165.605469 C 226.664062 166.023438 226.191406 166.382812 225.695312 166.722656 C 224.785156 167.347656 223.839844 167.953125 222.929688 168.597656 C 221.636719 169.507812 220.234375 169.5625 218.753906 169.277344 C 216.726562 168.882812 214.867188 168.046875 212.953125 167.308594 C 212.15625 167.007812 211.339844 166.722656 210.410156 166.382812 C 210.90625 167.726562 210.542969 168.863281 210.183594 170 C 209.710938 171.570312 209.597656 173.179688 209.765625 174.808594 C 209.898438 176.246094 209.632812 177.648438 209.253906 179.03125 C 209.066406 179.714844 208.554688 179.921875 207.871094 180.109375 C 208.117188 180.699219 208.269531 181.285156 208.570312 181.757812 C 210.125 184.164062 210.65625 186.890625 210.980469 189.675781 C 211.472656 193.839844 211.226562 198.007812 210.847656 202.171875 C 210.222656 209.140625 209.007812 216.015625 207.945312 222.925781 C 207.832031 223.664062 207.660156 224.402344 207.566406 225.140625 C 207.394531 226.371094 207.71875 227.546875 208.003906 228.722656 C 208.324219 230.046875 208.648438 231.371094 208.34375 232.734375 C 208.25 233.191406 208.269531 233.53125 208.570312 233.910156 C 208.914062 234.328125 208.800781 234.761719 208.402344 235.121094 C 207.625 235.839844 206.695312 235.804688 205.765625 235.558594 C 204.910156 235.347656 204.078125 235.007812 203.222656 234.835938 C 201.726562 234.535156 200.265625 234.875 198.84375 235.367188 C 197.667969 235.785156 196.492188 236.144531 195.296875 236.542969 C 195.222656 236.5625 195.144531 236.578125 195.050781 236.578125 C 194.519531 236.675781 194.042969 236.730469 193.722656 236.125 C 193.550781 235.804688 193.152344 235.59375 192.851562 235.347656 C 192.585938 235.140625 192.546875 234.914062 192.621094 234.589844 C 192.925781 233.359375 193.210938 232.109375 193.4375 230.859375 C 193.609375 229.875 193.34375 228.984375 192.832031 228.097656 C 191.332031 225.445312 189.910156 222.757812 188.449219 220.085938 C 184.242188 212.339844 180.03125 204.578125 175.839844 196.8125 C 175.648438 196.453125 175.480469 196.339844 175.097656 196.527344 C 174.152344 197.003906 173.183594 197.4375 172.214844 197.890625 C 171.800781 198.101562 171.382812 198.328125 170.851562 198.15625 C 170.792969 197.722656 171.078125 197.496094 171.324219 197.230469 C 172.332031 196.1875 173.335938 195.164062 174.339844 194.125 C 174.472656 193.992188 174.566406 193.859375 174.683594 193.726562 C 174.53125 193.441406 174.398438 193.175781 174.265625 192.910156 C 173.261719 193.289062 172.445312 192.949219 171.703125 192.269531 C 171.191406 191.792969 171.003906 191.265625 171.25 190.546875 C 171.402344 190.128906 171.324219 189.617188 171.304688 189.144531 C 171.289062 188.707031 171.289062 188.328125 171.667969 188.046875 C 170.738281 186.09375 170.644531 185.433594 169.164062 185.203125 C 169.125 184.316406 169.390625 183.539062 170.113281 182.96875 C 170.8125 182.421875 171.589844 182.421875 172.386719 182.6875 C 172.5 182.722656 172.613281 182.875 172.632812 182.988281 C 172.863281 184.597656 172.957031 184.863281 173.847656 186.320312 C 174.304688 186.09375 174.738281 185.847656 175.214844 185.660156 C 175.933594 185.375 176.3125 184.84375 176.617188 184.144531 C 177.601562 181.851562 179.007812 179.789062 180.410156 177.726562 C 181.109375 176.703125 181.871094 175.699219 182.535156 174.65625 C 183.027344 173.898438 183.5 173.125 183.84375 172.308594 C 184.921875 169.65625 186.230469 167.140625 187.617188 164.660156 C 188.242188 163.542969 188.867188 162.425781 189.457031 161.308594 C 189.988281 160.320312 190.800781 159.714844 191.863281 159.449219 C 192.699219 159.242188 193.550781 159.035156 194.386719 158.808594 C 194.785156 158.695312 195.164062 158.542969 195.523438 158.371094 C 196.660156 157.824219 197.117188 156.835938 197.175781 155.757812 C 196.207031 155.226562 195.277344 154.734375 194.386719 154.242188 C 193.875 153.960938 193.648438 153.449219 193.648438 152.9375 C 193.648438 151.800781 193.722656 150.664062 193.78125 149.507812 C 193.835938 148.621094 193.875 147.75 193.589844 146.878906 C 193.550781 146.78125 193.53125 146.648438 193.570312 146.554688 C 194.214844 144.679688 195.296875 143.222656 197.289062 142.617188 C 198.066406 142.390625 198.84375 142.464844 199.601562 142.710938 C 199.773438 142.769531 200 142.785156 200.152344 142.710938 C 201.101562 142.292969 202.027344 142.332031 202.976562 142.710938 C 205.042969 143.507812 206.542969 145.683594 206.332031 147.652344 C 206.277344 148.144531 205.898438 148.621094 205.898438 149.074219 C 205.917969 149.546875 206.316406 149.984375 206.390625 150.457031 C 206.582031 151.535156 206.183594 152.539062 205.898438 153.582031 C 205.613281 154.660156 204.929688 155.09375 203.867188 155.132812 C 203.527344 155.132812 203.1875 155.132812 202.804688 155.132812 C 202.710938 155.890625 203.015625 156.460938 203.453125 156.988281 C 204.378906 158.085938 205.613281 158.542969 207.015625 158.730469 C 208.039062 158.863281 209.046875 159.074219 210.050781 159.300781 C 211.132812 159.527344 212.082031 160.039062 212.859375 160.832031 C 213.882812 161.914062 215.152344 162.539062 216.554688 162.972656 C 217.902344 163.410156 219.25 163.921875 220.578125 164.375 C 220.691406 164.414062 220.878906 164.414062 220.972656 164.355469 C 222.832031 163.371094 224.710938 162.386719 226.550781 161.34375 C 227.839844 160.605469 228.921875 159.621094 229.792969 158.390625 C 230.210938 157.804688 230.742188 157.3125 231.273438 156.835938 C 231.726562 156.421875 232.316406 156.328125 232.941406 156.421875 C 233.472656 156.496094 234.023438 156.476562 234.554688 156.589844 C 234.914062 156.667969 235.253906 156.835938 235.558594 157.046875 C 236.488281 157.691406 237.398438 158.351562 238.289062 159.015625 C 238.382812 159.089844 238.441406 159.320312 238.402344 159.449219 C 238.347656 159.601562 238.195312 159.714844 238.042969 159.886719 C 240.507812 160.359375 242.933594 160.832031 245.382812 161.308594 C 245.683594 161.363281 246.027344 161.402344 246.273438 161.554688 C 246.464844 161.667969 246.519531 161.96875 246.652344 162.179688 C 246.445312 162.273438 246.253906 162.367188 246.046875 162.441406 C 245.96875 162.460938 245.894531 162.441406 245.761719 162.425781 C 245.78125 162.574219 245.800781 162.707031 245.835938 162.820312 C 247.050781 167.160156 248.285156 171.476562 249.476562 175.8125 C 249.574219 176.152344 249.742188 176.265625 250.066406 176.230469 C 250.253906 176.210938 250.445312 176.230469 250.785156 176.230469 C 250.578125 176.722656 250.445312 177.175781 250.238281 177.574219 C 249.820312 178.3125 249.195312 178.84375 248.433594 179.203125 C 245.855469 180.453125 243.21875 180.488281 240.601562 179.335938 C 239.484375 178.84375 238.648438 178.027344 238.269531 176.816406 C 238.097656 176.285156 238.15625 176.246094 238.707031 176.210938 C 238.859375 176.210938 239.085938 176.078125 239.125 175.964844 C 240.601562 171.550781 242.0625 167.121094 243.523438 162.6875 C 243.542969 162.652344 243.542969 162.59375 243.5625 162.460938 C 239.238281 162.460938 234.933594 162.460938 230.550781 162.460938 C 230.761719 163.332031 230.96875 164.203125 231.214844 165.054688 C 232.257812 168.75 233.300781 172.460938 234.34375 176.152344 C 234.421875 176.4375 234.535156 176.53125 234.820312 176.492188 C 234.953125 176.476562 235.085938 176.476562 235.292969 176.476562 Z M 190.800781 170.605469 C 190.648438 170.792969 190.535156 170.964844 190.421875 171.117188 C 189.777344 171.96875 189.09375 172.820312 188.46875 173.691406 C 187.558594 174.941406 186.6875 176.191406 185.8125 177.460938 C 185.585938 177.800781 185.359375 178.160156 185.265625 178.539062 C 184.902344 179.976562 184.144531 181.191406 183.195312 182.289062 C 181.925781 183.785156 180.597656 185.242188 179.273438 186.683594 C 178.511719 187.496094 178.039062 188.386719 177.90625 189.503906 C 177.832031 190.109375 177.679688 190.734375 177.582031 191.339844 C 177.527344 191.605469 177.433594 191.792969 177.109375 191.8125 C 176.769531 191.832031 176.804688 192.039062 176.921875 192.25 C 177.070312 192.535156 177.335938 192.550781 177.601562 192.457031 C 178.058594 192.285156 178.511719 192.097656 178.96875 191.890625 C 179.765625 191.53125 180.5625 191.132812 181.375 190.773438 C 181.585938 190.675781 181.832031 190.660156 182.058594 190.601562 C 182.230469 191.359375 181.8125 191.757812 181.359375 192.15625 C 180.484375 192.910156 179.652344 193.707031 178.816406 194.464844 C 183.578125 203.726562 188.28125 212.890625 192.984375 222.054688 C 193.058594 221.847656 193.039062 221.65625 193 221.488281 C 192.507812 218.722656 191.941406 215.957031 191.5625 213.175781 C 191.011719 209.160156 190.515625 205.125 190.121094 201.09375 C 189.757812 197.496094 189.910156 193.898438 189.96875 190.296875 C 190.003906 188.328125 190.480469 186.566406 191.542969 184.882812 C 192.433594 183.460938 193.097656 181.871094 193.894531 180.339844 C 193.570312 180.242188 193.324219 180.167969 193.078125 180.074219 C 192.339844 179.808594 192.074219 179.390625 192.128906 178.613281 C 192.148438 178.367188 192.1875 178.121094 192.242188 177.894531 C 192.433594 177.0625 192.433594 176.230469 192.1875 175.414062 C 191.769531 173.863281 191.296875 172.289062 190.800781 170.605469 Z M 244.71875 162.539062 C 244.640625 162.539062 244.546875 162.539062 244.472656 162.539062 C 242.992188 167.0625 241.496094 171.609375 239.996094 176.191406 C 242.953125 176.191406 245.800781 176.191406 248.699219 176.191406 C 247.390625 171.609375 246.332031 167.007812 244.71875 162.539062 Z M 233.527344 176.457031 C 232.277344 172.007812 231.160156 167.554688 229.699219 163.21875 C 229.660156 163.21875 229.601562 163.21875 229.566406 163.199219 C 227.898438 167.59375 226.226562 172.007812 224.539062 176.457031 C 227.613281 176.457031 230.550781 176.457031 233.527344 176.457031 Z M 207.660156 189.085938 C 207.625 189.597656 207.566406 190.089844 207.546875 190.601562 C 207.339844 196.925781 206.960938 203.214844 206.144531 209.5 C 205.6875 213.023438 205.082031 216.527344 203.980469 219.914062 C 203.109375 222.605469 201.992188 225.179688 200.113281 227.359375 C 199.277344 228.304688 198.3125 229.101562 197.097656 229.800781 C 197.933594 229.707031 198.632812 229.628906 199.335938 229.554688 C 200.058594 229.480469 200.757812 229.363281 201.480469 229.308594 C 201.839844 229.289062 202.011719 229.136719 202.144531 228.796875 C 204.722656 222.246094 206.085938 215.410156 206.808594 208.441406 C 207.226562 204.292969 207.433594 200.125 207.640625 195.960938 C 207.757812 193.667969 207.660156 191.378906 207.660156 189.085938 Z M 205.082031 149.738281 C 205.121094 149.605469 205.140625 149.492188 205.195312 149.394531 C 205.40625 148.941406 205.253906 148.695312 204.796875 148.582031 C 204.210938 148.429688 203.640625 148.242188 203.054688 148.109375 C 202.464844 147.976562 201.878906 147.898438 201.289062 147.785156 C 201.308594 147.730469 201.308594 147.671875 201.328125 147.617188 C 202.671875 147.878906 204.039062 148.125 205.386719 148.390625 C 205.6875 147.484375 205.707031 147.445312 204.742188 147.140625 C 201.382812 146.0625 198.046875 146.082031 194.707031 147.238281 C 194.5 147.3125 194.328125 147.464844 194.121094 147.578125 C 194.140625 147.617188 194.160156 147.652344 194.175781 147.691406 C 194.707031 147.578125 195.222656 147.464844 195.75 147.371094 C 196.300781 147.273438 196.851562 147.160156 197.402344 147.105469 C 197.933594 147.046875 198.484375 147.007812 199.011719 147.007812 C 199.542969 147.007812 200.074219 147.066406 200.605469 147.085938 C 200.453125 147.199219 200.304688 147.199219 200.152344 147.199219 C 198.199219 147.160156 196.300781 147.519531 194.460938 148.144531 C 194.308594 148.203125 194.082031 148.355469 194.0625 148.488281 C 194.027344 148.960938 194.042969 149.453125 194.042969 150.019531 C 197.761719 149.148438 201.402344 149.375 205.082031 149.738281 Z M 194.292969 175.832031 C 194.214844 175.867188 194.160156 175.886719 194.082031 175.925781 C 194.253906 176.34375 194.367188 176.777344 194.574219 177.15625 C 195.105469 178.179688 196 178.804688 197.023438 179.238281 C 198.007812 179.675781 198.976562 179.675781 199.941406 179.144531 C 201.992188 178.027344 203.71875 176.550781 205.082031 174.65625 C 206.960938 172.042969 208.136719 169.109375 209.007812 166.039062 C 209.3125 164.960938 209.558594 163.863281 209.84375 162.785156 C 209.347656 163.996094 208.96875 165.246094 208.515625 166.457031 C 207.28125 169.714844 205.652344 172.746094 203.128906 175.207031 C 201.894531 176.398438 200.550781 177.441406 198.9375 178.085938 C 198.519531 178.253906 197.96875 178.351562 197.574219 178.21875 C 196.433594 177.800781 195.449219 177.082031 194.59375 176.191406 C 194.480469 176.078125 194.386719 175.945312 194.292969 175.832031 Z M 193.34375 227.660156 C 193.398438 227.640625 193.4375 227.640625 193.496094 227.621094 C 192.886719 226.203125 192.300781 224.761719 191.636719 223.382812 C 187.21875 214.121094 182.761719 204.878906 178.324219 195.621094 C 178.265625 195.488281 178.191406 195.375 178.113281 195.261719 C 177.582031 195.601562 177.566406 195.601562 177.773438 196.113281 C 178.058594 196.832031 178.34375 197.550781 178.683594 198.234375 C 182.402344 205.695312 186.117188 213.175781 189.835938 220.636719 C 190.992188 222.984375 192.167969 225.3125 193.34375 227.660156 Z M 190.082031 161.34375 C 190.234375 161.554688 190.328125 161.683594 190.441406 161.816406 C 192.339844 164.109375 194.878906 165.054688 197.761719 165.167969 C 201.859375 165.359375 205.367188 163.824219 208.515625 161.324219 C 208.554688 161.308594 208.570312 161.25 208.609375 161.191406 C 207.453125 161.800781 206.371094 162.441406 205.234375 162.972656 C 202.390625 164.335938 199.410156 164.675781 196.339844 163.804688 C 194.308594 163.238281 192.621094 162.140625 191.296875 160.511719 C 190.898438 160.796875 190.515625 161.0625 190.082031 161.34375 Z M 192.472656 208.34375 C 192.453125 208.34375 192.433594 208.34375 192.414062 208.363281 C 192.414062 208.515625 192.394531 208.667969 192.414062 208.800781 C 192.753906 211.089844 193.058594 213.402344 193.496094 215.671875 C 194.101562 218.835938 195.03125 221.886719 196.359375 224.820312 C 196.660156 225.484375 196.984375 225.558594 197.589844 225.140625 C 197.703125 225.066406 197.835938 224.972656 197.933594 224.859375 C 198.671875 224.042969 199.394531 223.230469 200.113281 222.394531 C 200.207031 222.28125 200.246094 222.148438 200.320312 222.015625 C 200.304688 221.980469 200.285156 221.941406 200.246094 221.902344 C 199.941406 222 199.640625 222.074219 199.355469 222.207031 C 198.976562 222.378906 198.617188 222.625 198.21875 222.773438 C 197.441406 223.097656 196.777344 222.871094 196.398438 222.132812 C 195.980469 221.335938 195.582031 220.523438 195.257812 219.6875 C 194.195312 216.941406 193.664062 214.0625 193.078125 211.203125 C 192.867188 210.277344 192.660156 209.3125 192.472656 208.34375 Z M 193.742188 183.992188 C 193.703125 184.011719 193.683594 184.050781 193.648438 184.070312 C 194.273438 185.28125 194.839844 186.53125 195.523438 187.722656 C 195.921875 188.40625 196.492188 188.992188 197.058594 189.542969 C 197.820312 190.261719 198.386719 190.316406 199.355469 189.636719 C 200.96875 188.519531 201.859375 186.8125 202.824219 185.1875 C 202.410156 185.488281 202.046875 185.828125 201.667969 186.171875 C 201.003906 186.738281 200.359375 187.363281 199.640625 187.855469 C 198.652344 188.554688 197.6875 188.5 196.757812 187.703125 C 196.1875 187.210938 195.714844 186.625 195.238281 186.039062 C 194.707031 185.375 194.234375 184.675781 193.742188 183.992188 Z M 207.1875 231.542969 C 207.226562 231.503906 207.261719 231.484375 207.300781 231.449219 C 207.054688 231.011719 206.828125 230.539062 206.523438 230.121094 C 205.992188 229.382812 205.746094 228.589844 205.9375 227.679688 C 205.992188 227.394531 206.050781 227.09375 206.105469 226.808594 C 206.597656 224.347656 207.09375 221.902344 207.566406 219.441406 C 207.625 219.101562 207.660156 218.761719 207.679688 218.417969 C 207.699219 218.097656 207.679688 217.777344 207.679688 217.453125 C 206.828125 221.769531 205.6875 225.976562 203.8125 230.007812 C 205.195312 230.085938 206.257812 230.671875 207.1875 231.542969 Z M 207.964844 173.292969 C 207.207031 176.171875 204.929688 177.59375 202.410156 178.878906 C 203.128906 178.9375 203.699219 178.9375 204.265625 179.03125 C 204.683594 179.105469 204.988281 178.976562 205.289062 178.710938 C 206.960938 177.308594 207.660156 175.414062 207.964844 173.292969 Z M 234.953125 159.847656 C 233.738281 159.433594 232.867188 159.734375 232.582031 160.605469 C 233.359375 160.359375 234.097656 160.132812 234.953125 159.847656 Z M 234.953125 159.847656 " fill-opacity="1" fill-rule="nonzero"/></g><g clip-path="url(#4577293655)"><g clip-path="url(#4e7e66f4b7)"><path fill="#edbf5f" d="M 288.636719 215.066406 L 288.636719 179.152344 L 341.886719 179.152344 L 341.886719 215.066406 Z M 288.636719 215.066406 " fill-opacity="1" fill-rule="nonzero"/></g></g><g clip-path="url(#e5d48d21a6)"><g clip-path="url(#ac6469e72e)"><path fill="#edbf5f" d="M 131.351562 179.160156 L 131.351562 215.074219 L 78.101562 215.074219 L 78.101562 179.160156 Z M 131.351562 179.160156 " fill-opacity="1" fill-rule="nonzero"/></g></g><g fill="#fef5ea" fill-opacity="1"><g transform="translate(135.383665, 150.948551)"><g><path d="M 16.589844 -19.863281 C 16.71875 -20.015625 16.730469 -20.117188 16.578125 -20.246094 C 16.421875 -20.375 16.289062 -20.300781 16.15625 -20.1875 C 15.074219 -19.160156 14.449219 -18.898438 13.855469 -19.394531 L 0.5 -30.550781 C -0.15625 -31.101562 -0.1875 -31.867188 0.675781 -33.078125 C 0.785156 -33.210938 0.855469 -33.339844 0.660156 -33.503906 C 0.507812 -33.632812 0.40625 -33.601562 0.28125 -33.449219 L -3.507812 -28.917969 C -3.800781 -28.566406 -3.699219 -28.371094 -3.535156 -28.082031 L 4.785156 -13.738281 L -11.253906 -18.84375 C -11.585938 -18.933594 -11.847656 -18.929688 -12.050781 -18.6875 L -15.6875 -14.332031 C -15.816406 -14.179688 -15.828125 -14.074219 -15.675781 -13.949219 C -15.476562 -13.785156 -15.386719 -13.894531 -15.292969 -13.960938 C -13.976562 -15.09375 -13.003906 -15.097656 -12.015625 -14.277344 L -0.148438 -4.363281 C 0.835938 -3.539062 0.972656 -2.496094 0.1875 -1.070312 C 0.101562 -0.921875 0.0703125 -0.796875 0.222656 -0.667969 C 0.375 -0.539062 0.476562 -0.570312 0.605469 -0.722656 L 4.5 -5.386719 C 4.664062 -5.585938 4.640625 -5.644531 4.484375 -5.769531 C 4.332031 -5.898438 4.234375 -5.871094 4.101562 -5.757812 C 2.875 -4.734375 1.683594 -4.507812 0.675781 -5.347656 L -10.648438 -14.804688 C -10.84375 -14.96875 -10.875 -15.066406 -10.835938 -15.113281 C -10.816406 -15.132812 -10.738281 -15.140625 -10.636719 -15.128906 L 6.734375 -9.394531 C 7.464844 -9.15625 7.683594 -9.199219 8.03125 -9.613281 C 8.339844 -9.984375 8.398438 -10.234375 8.039062 -10.871094 L -1.199219 -26.691406 C -1.277344 -26.867188 -1.304688 -26.964844 -1.269531 -27.011719 C -1.234375 -27.054688 -1.148438 -27.019531 -1.039062 -26.929688 L 11.441406 -16.503906 C 12.011719 -16.027344 11.929688 -15.351562 11.070312 -14.101562 C 10.984375 -13.949219 10.972656 -13.847656 11.125 -13.71875 C 11.277344 -13.59375 11.378906 -13.621094 11.503906 -13.773438 Z M 16.589844 -19.863281 "/></g></g></g><g fill="#fef5ea" fill-opacity="1"><g transform="translate(154.301158, 129.449627)"><g><path d="M 14.570312 -9.46875 C 14.738281 -9.578125 14.800781 -9.6875 14.613281 -10.078125 C 14.101562 -11.109375 12.910156 -13.945312 12.484375 -15.207031 C 12.453125 -15.253906 12.460938 -15.292969 12.445312 -15.316406 C 12.382812 -15.410156 12.296875 -15.386719 12.148438 -15.355469 C 12.082031 -15.347656 12.035156 -15.316406 12.011719 -15.300781 L 11.988281 -15.285156 C 11.867188 -15.207031 11.867188 -15.105469 11.875 -14.9375 C 12.207031 -12.007812 11.945312 -10.230469 10.847656 -8.683594 C 10.53125 -8.234375 9.222656 -7.265625 8.007812 -6.460938 C 7.175781 -5.910156 6.382812 -5.453125 6.023438 -5.320312 C 5.691406 -5.203125 5.195312 -5.179688 4.816406 -5.753906 L 0.21875 -12.699219 C 0.503906 -12.890625 2.875 -14.425781 3.175781 -14.589844 C 3.613281 -14.808594 4.222656 -14.871094 4.699219 -14.773438 C 5.472656 -14.636719 7.042969 -13.761719 7.761719 -13.140625 C 7.890625 -13.054688 7.992188 -13.054688 8.109375 -13.132812 L 8.183594 -13.179688 C 8.292969 -13.320312 8.371094 -13.40625 8.292969 -13.527344 C 8.277344 -13.550781 8.238281 -13.558594 8.222656 -13.582031 C 7.433594 -14.359375 6.09375 -15.972656 5.511719 -16.851562 C 5.007812 -17.613281 4.121094 -19.320312 3.59375 -20.578125 C 3.578125 -20.601562 3.585938 -20.640625 3.570312 -20.664062 C 3.492188 -20.785156 3.382812 -20.746094 3.183594 -20.683594 L 3.089844 -20.621094 C 2.992188 -20.558594 2.960938 -20.5 2.992188 -20.351562 C 3.296875 -19.527344 3.488281 -17.738281 3.335938 -16.882812 C 3.214844 -16.289062 2.9375 -15.832031 2.5625 -15.515625 C 2.292969 -15.304688 -0.046875 -13.722656 -0.332031 -13.535156 L -5.195312 -20.886719 L -1.554688 -23.296875 C 0.5625 -24.695312 3.101562 -24.527344 5.644531 -22.652344 C 5.785156 -22.542969 5.902344 -22.515625 6.023438 -22.597656 C 6.046875 -22.613281 6.078125 -22.667969 6.125 -22.699219 C 6.214844 -22.824219 6.222656 -22.863281 6.160156 -22.960938 L 6.097656 -23.054688 C 5.117188 -24.015625 3.335938 -26.085938 2.636719 -26.992188 C 2.398438 -27.246094 2.195312 -27.246094 2.027344 -27.136719 L 1.980469 -27.105469 C 0.589844 -25.945312 -0.671875 -25.007812 -2.050781 -24.097656 L -10.59375 -18.445312 C -10.785156 -18.320312 -10.816406 -18.261719 -10.691406 -18.074219 C -10.566406 -17.882812 -10.476562 -17.90625 -10.320312 -17.976562 C -8.890625 -18.714844 -8.339844 -18.707031 -7.882812 -18.015625 L 1.816406 -3.355469 C 2.242188 -2.714844 2.035156 -2.199219 0.796875 -1.175781 C 0.667969 -1.058594 0.628906 -0.964844 0.738281 -0.796875 C 0.847656 -0.628906 0.902344 -0.597656 1.117188 -0.738281 L 8.6875 -5.746094 C 10.089844 -6.675781 11.199219 -7.273438 14.546875 -9.453125 Z M 14.570312 -9.46875 "/></g></g></g><g fill="#fef5ea" fill-opacity="1"><g transform="translate(172.552814, 117.471918)"><g><path d="M 0.511719 -21.410156 C 0.511719 -21.410156 2.402344 -22.152344 3.105469 -22.382812 C 6.25 -23.421875 10.683594 -21.367188 12.835938 -14.835938 C 15.292969 -7.382812 11.546875 -4.886719 9.296875 -4.148438 C 7.402344 -3.519531 6.375 -3.632812 6.125 -4.390625 Z M 9.945312 -3.277344 C 15.769531 -5.199219 18.765625 -9.789062 16.523438 -16.59375 C 14.308594 -23.3125 9.0625 -25.460938 3.425781 -23.601562 C 0.175781 -22.53125 -1.6875 -21.796875 -5.425781 -20.5625 C -5.589844 -20.507812 -5.6875 -20.445312 -5.617188 -20.230469 C -5.546875 -20.011719 -5.457031 -20.011719 -5.285156 -20.039062 C -3.660156 -20.394531 -3.125 -20.238281 -2.867188 -19.453125 L 2.636719 -2.761719 C 2.875 -2.03125 2.539062 -1.589844 1.023438 -0.90625 C 0.867188 -0.828125 0.804688 -0.746094 0.867188 -0.554688 C 0.929688 -0.367188 1.03125 -0.339844 1.21875 -0.402344 Z M 9.945312 -3.277344 "/></g></g></g><g fill="#fef5ea" fill-opacity="1"><g transform="translate(195.646084, 110.276074)"><g><path d="M 17.359375 -0.765625 C 17.558594 -0.777344 17.671875 -0.839844 17.707031 -1.269531 C 17.789062 -2.417969 18.199219 -5.46875 18.472656 -6.769531 C 18.472656 -6.824219 18.5 -6.855469 18.496094 -6.882812 C 18.492188 -7 18.402344 -7.023438 18.257812 -7.070312 C 18.199219 -7.097656 18.144531 -7.09375 18.113281 -7.09375 L 18.085938 -7.089844 C 17.941406 -7.082031 17.890625 -6.996094 17.8125 -6.847656 C 16.609375 -4.15625 15.484375 -2.753906 13.753906 -1.976562 C 13.25 -1.75 11.632812 -1.582031 10.179688 -1.503906 C 9.179688 -1.453125 8.265625 -1.460938 7.890625 -1.527344 C 7.546875 -1.59375 7.105469 -1.828125 7.070312 -2.511719 L 6.632812 -10.832031 C 6.972656 -10.851562 9.796875 -10.972656 10.140625 -10.960938 C 10.628906 -10.929688 11.183594 -10.671875 11.542969 -10.347656 C 12.140625 -9.835938 13.050781 -8.285156 13.355469 -7.386719 C 13.421875 -7.246094 13.507812 -7.195312 13.652344 -7.203125 L 13.738281 -7.207031 C 13.90625 -7.273438 14.015625 -7.304688 14.011719 -7.449219 C 14.007812 -7.476562 13.976562 -7.503906 13.976562 -7.53125 C 13.691406 -8.605469 13.355469 -10.671875 13.300781 -11.726562 C 13.253906 -12.636719 13.351562 -14.558594 13.539062 -15.910156 C 13.535156 -15.9375 13.5625 -15.96875 13.5625 -15.996094 C 13.554688 -16.140625 13.4375 -16.164062 13.234375 -16.207031 L 13.121094 -16.203125 C 13.007812 -16.195312 12.953125 -16.164062 12.902344 -16.019531 C 12.75 -15.15625 12.007812 -13.515625 11.441406 -12.855469 C 11.035156 -12.40625 10.5625 -12.152344 10.082031 -12.070312 C 9.742188 -12.023438 6.921875 -11.847656 6.578125 -11.832031 L 6.117188 -20.636719 L 10.476562 -20.863281 C 13.015625 -20.996094 15.117188 -19.566406 16.355469 -16.65625 C 16.421875 -16.488281 16.511719 -16.410156 16.652344 -16.417969 C 16.683594 -16.417969 16.738281 -16.449219 16.796875 -16.453125 C 16.933594 -16.515625 16.960938 -16.546875 16.957031 -16.660156 L 16.949219 -16.773438 C 16.59375 -18.097656 16.109375 -20.789062 15.964844 -21.921875 C 15.890625 -22.261719 15.714844 -22.367188 15.515625 -22.355469 L 15.457031 -22.355469 C 13.671875 -22.058594 12.109375 -21.894531 10.457031 -21.804688 L 0.226562 -21.269531 C 0 -21.257812 -0.0546875 -21.226562 -0.0429688 -21 C -0.03125 -20.769531 0.0546875 -20.746094 0.226562 -20.726562 C 1.832031 -20.640625 2.304688 -20.351562 2.347656 -19.523438 L 3.269531 -1.972656 C 3.308594 -1.203125 2.867188 -0.863281 1.28125 -0.609375 C 1.113281 -0.574219 1.03125 -0.511719 1.039062 -0.3125 C 1.050781 -0.113281 1.082031 -0.0585938 1.339844 -0.0703125 L 10.398438 -0.546875 C 12.082031 -0.632812 13.339844 -0.585938 17.332031 -0.765625 Z M 17.359375 -0.765625 "/></g></g></g><g fill="#fef5ea" fill-opacity="1"><g transform="translate(217.967656, 109.817351)"><g><path d="M 9.472656 1.464844 C 9.671875 1.496094 9.765625 1.453125 9.796875 1.257812 C 9.824219 1.058594 9.695312 0.980469 9.585938 0.933594 C 8.042969 0.464844 7.421875 0.167969 7.542969 -0.59375 L 10.257812 -18.132812 C 10.375 -18.894531 11.054688 -18.992188 12.667969 -18.972656 C 12.785156 -18.984375 12.925781 -18.960938 12.964844 -19.214844 C 12.996094 -19.410156 12.917969 -19.480469 12.722656 -19.511719 L 4.488281 -20.785156 C 4.234375 -20.824219 4.199219 -20.773438 4.167969 -20.578125 C 4.128906 -20.324219 4.210938 -20.308594 4.378906 -20.253906 C 5.921875 -19.785156 6.539062 -19.488281 6.421875 -18.726562 L 3.707031 -1.1875 C 3.589844 -0.425781 2.910156 -0.328125 1.296875 -0.347656 C 1.121094 -0.347656 1.027344 -0.304688 0.996094 -0.105469 C 0.96875 0.09375 1.042969 0.160156 1.242188 0.191406 Z M 9.472656 1.464844 "/></g></g></g><g fill="#fef5ea" fill-opacity="1"><g transform="translate(231.034341, 111.529909)"><g><path d="M 13.960938 -16.34375 C 14.410156 -16.234375 16.1875 -15.613281 16.960938 -15.316406 C 19.597656 -14.308594 20.558594 -12.105469 19.628906 -9.679688 C 18.589844 -6.964844 16.488281 -5.875 14.25 -6.730469 C 12.652344 -7.34375 10.871094 -8.269531 11.175781 -9.070312 Z M 20.726562 7.390625 C 20.789062 7.230469 20.746094 7.183594 20.636719 7.144531 L 20.210938 6.980469 C 19.121094 6.5625 18.332031 5.742188 17.832031 3.777344 C 17.167969 1.046875 16.738281 -2.691406 16.625 -4.875 C 20.039062 -4.207031 22.007812 -5.683594 23.039062 -8.375 C 24.214844 -11.4375 22.398438 -14.273438 18.292969 -15.847656 C 14.671875 -17.234375 12.472656 -17.953125 8.792969 -19.363281 C 8.636719 -19.425781 8.507812 -19.414062 8.4375 -19.226562 C 8.34375 -18.984375 8.425781 -18.957031 8.574219 -18.867188 C 10.058594 -18.117188 10.371094 -17.660156 10.074219 -16.886719 L 3.789062 -0.472656 C 3.511719 0.246094 2.972656 0.375 1.417969 -0.0351562 C 1.25 -0.0703125 1.148438 -0.046875 1.078125 0.136719 C 1.007812 0.324219 1.011719 0.386719 1.253906 0.480469 L 8.578125 3.289062 C 8.765625 3.359375 8.867188 3.335938 8.9375 3.148438 C 9.007812 2.964844 8.933594 2.84375 8.800781 2.792969 C 7.386719 2.097656 7.09375 1.585938 7.359375 0.894531 L 10.492188 -7.285156 C 10.492188 -7.285156 12.960938 -6.15625 13.019531 -5.429688 C 13.15625 -3.390625 13.492188 0.433594 13.929688 2.558594 C 14.351562 4.734375 15.832031 6.128906 17.882812 6.914062 C 18.816406 7.269531 19.671875 7.507812 20.402344 7.601562 C 20.554688 7.601562 20.644531 7.605469 20.707031 7.445312 Z M 20.726562 7.390625 "/></g></g></g><g fill="#fef5ea" fill-opacity="1"><g transform="translate(252.437192, 119.789274)"><g><path d="M 10.261719 6.769531 C 7.207031 4.46875 7.660156 -0.875 11.574219 -6.070312 C 11.59375 -6.09375 11.609375 -6.113281 11.625 -6.136719 C 15.117188 -10.722656 18.761719 -11.480469 21.472656 -9.4375 C 24.59375 -7.085938 24.195312 -1.957031 20.109375 3.46875 C 16.675781 8.027344 12.882812 8.742188 10.261719 6.769531 Z M 9.226562 7.523438 C 14.539062 11.523438 20.128906 10.269531 24.144531 4.9375 C 28.164062 -0.394531 27.863281 -6.160156 22.550781 -10.160156 C 17.289062 -14.125 11.617188 -12.859375 7.601562 -7.527344 C 3.582031 -2.195312 3.964844 3.558594 9.226562 7.523438 Z M 9.226562 7.523438 "/></g></g></g><g fill="#fef5ea" fill-opacity="1"><g transform="translate(272.526245, 135.600032)"><g><path d="M 25.082031 -1.828125 C 24.710938 -2.546875 23.886719 -4.507812 22.914062 -5.773438 C 19.835938 -9.777344 16.363281 -10.453125 13.785156 -8.472656 C 11.320312 -6.578125 11.15625 -3.789062 12.722656 1.054688 C 14.121094 5.449219 13.867188 7.550781 12.078125 8.925781 C 10.425781 10.195312 8.390625 9.601562 6.40625 7.023438 C 4.859375 5.011719 4.441406 1.660156 6.777344 -2.511719 C 6.855469 -2.644531 6.890625 -2.742188 6.804688 -2.855469 C 6.769531 -2.898438 6.710938 -2.925781 6.675781 -2.972656 C 6.542969 -3.050781 6.445312 -3.082031 6.355469 -3.015625 C 6.3125 -2.980469 6.304688 -2.941406 6.261719 -2.90625 C 5.289062 -1.6875 3.34375 0.273438 2.511719 1.019531 C 2.347656 1.183594 2.355469 1.425781 2.421875 1.699219 C 2.832031 3.542969 4.039062 6 5.308594 7.652344 C 8.820312 12.222656 12.316406 13.027344 15.324219 10.714844 C 18.152344 8.539062 18.4375 5.117188 16.703125 0.332031 C 15.105469 -4.089844 15.160156 -5.933594 16.722656 -7.132812 C 18.101562 -8.191406 19.96875 -7.683594 22.019531 -5.015625 C 23.550781 -3.023438 23.785156 0.464844 21.941406 3.359375 C 21.921875 3.375 21.914062 3.414062 21.894531 3.433594 C 21.859375 3.53125 21.847656 3.609375 21.917969 3.699219 C 21.953125 3.746094 21.988281 3.792969 22.046875 3.820312 C 22.082031 3.863281 22.121094 3.871094 22.121094 3.871094 C 22.179688 3.898438 22.242188 3.886719 22.261719 3.867188 C 22.285156 3.851562 22.3125 3.792969 22.335938 3.777344 C 23.289062 2.71875 25.042969 0.976562 26.222656 -0.109375 C 26.265625 -0.144531 26.296875 -0.203125 26.339844 -0.238281 C 26.394531 -0.351562 26.40625 -0.433594 26.335938 -0.523438 C 26.285156 -0.589844 26.210938 -0.640625 26.101562 -0.738281 C 25.839844 -0.933594 25.464844 -1.328125 25.207031 -1.667969 Z M 25.082031 -1.828125 "/></g></g></g><g fill="#fef5ea" fill-opacity="1"><g transform="translate(113.894637, 246.984899)"><g><path d="M 12.6875 6.335938 L 9.019531 0.417969 L 18.445312 -1.328125 Z M 11.003906 17.753906 C 11.109375 17.921875 11.210938 17.925781 11.382812 17.820312 C 11.550781 17.714844 11.570312 17.636719 11.472656 17.425781 C 11 16.445312 10.953125 15.398438 11.394531 14.757812 L 23.414062 -2.191406 C 23.699219 -2.605469 23.769531 -2.816406 23.558594 -3.15625 C 23.332031 -3.519531 23.113281 -3.550781 22.695312 -3.460938 L 3.601562 0.015625 C 2.191406 0.285156 1.191406 0.132812 0.0234375 -0.988281 C -0.144531 -1.152344 -0.199219 -1.1875 -0.390625 -1.066406 C -0.5625 -0.960938 -0.554688 -0.898438 -0.375 -0.605469 L 2.929688 4.730469 C 3.082031 4.972656 3.164062 5.054688 3.335938 4.949219 C 3.53125 4.828125 3.546875 4.75 3.453125 4.539062 C 2.828125 2.777344 2.910156 1.988281 3.566406 1.582031 C 3.785156 1.449219 4.03125 1.359375 4.359375 1.292969 L 7.824219 0.65625 L 11.945312 7.300781 L 8.953125 11.300781 C 8.871094 11.386719 8.8125 11.457031 8.742188 11.5 C 8.402344 11.710938 7.941406 11.460938 7.175781 10.492188 C 6.96875 10.214844 6.867188 10.210938 6.671875 10.332031 C 6.550781 10.40625 6.507812 10.5 6.628906 10.695312 Z M 11.003906 17.753906 "/></g></g></g><g fill="#fef5ea" fill-opacity="1"><g transform="translate(129.101369, 269.945117)"><g><path d="M 18.996094 -9.886719 C 18.996094 -9.886719 20.558594 -8.589844 21.101562 -8.085938 C 23.527344 -5.832031 23.867188 -0.960938 19.1875 4.078125 C 13.847656 9.828125 9.855469 7.753906 8.121094 6.140625 C 6.65625 4.78125 6.257812 3.828125 6.800781 3.242188 Z M 7.671875 7.125 C 12.167969 11.300781 17.632812 11.707031 22.507812 6.457031 C 27.324219 1.273438 26.671875 -4.355469 22.324219 -8.394531 C 19.8125 -10.722656 18.273438 -12 15.386719 -14.679688 C 15.261719 -14.796875 15.160156 -14.851562 15.003906 -14.6875 C 14.847656 -14.519531 14.890625 -14.4375 15 -14.300781 C 16.09375 -13.050781 16.214844 -12.507812 15.652344 -11.902344 L 3.691406 0.972656 C 3.164062 1.539062 2.617188 1.457031 1.289062 0.457031 C 1.144531 0.363281 1.042969 0.34375 0.90625 0.492188 C 0.769531 0.636719 0.792969 0.738281 0.941406 0.875 Z M 7.671875 7.125 "/></g></g></g><g fill="#fef5ea" fill-opacity="1"><g transform="translate(151.557652, 289.267829)"><g><path d="M 8.285156 3.863281 C 8.25 4.359375 8.378906 4.910156 8.808594 5.136719 C 9.210938 5.347656 9.675781 5.140625 10.054688 4.789062 L 24.160156 -7.851562 C 25.070312 -8.664062 26.210938 -9 27.890625 -8.699219 C 28.105469 -8.679688 28.207031 -8.691406 28.300781 -8.867188 C 28.394531 -9.046875 28.304688 -9.125 28.054688 -9.257812 L 22.46875 -12.183594 C 22.21875 -12.316406 22.101562 -12.34375 22.011719 -12.167969 C 21.902344 -11.964844 21.992188 -11.886719 22.117188 -11.757812 C 23.40625 -10.46875 23.671875 -9.6875 23.328125 -9.027344 C 23.234375 -8.851562 23.078125 -8.675781 22.882812 -8.488281 L 12.21875 1.027344 L 13.890625 -14.75 C 13.90625 -14.839844 13.933594 -14.953125 13.960938 -15.003906 C 14.171875 -15.410156 14.808594 -15.332031 15.988281 -14.941406 C 16.269531 -14.859375 16.394531 -14.855469 16.5 -15.058594 C 16.566406 -15.183594 16.53125 -15.300781 16.355469 -15.394531 L 9.050781 -19.222656 C 8.875 -19.316406 8.785156 -19.265625 8.691406 -19.089844 C 8.601562 -18.914062 8.625 -18.835938 8.761719 -18.730469 C 9.59375 -18.167969 10.15625 -17.515625 10.105469 -16.867188 Z M 8.285156 3.863281 "/></g></g></g><g fill="#fef5ea" fill-opacity="1"><g transform="translate(176.015618, 301.268476)"><g><path d="M 12.160156 1.808594 C 8.421875 1.007812 6.578125 -4.023438 7.933594 -10.386719 C 7.941406 -10.414062 7.945312 -10.441406 7.953125 -10.46875 C 9.183594 -16.101562 12.167969 -18.324219 15.488281 -17.613281 C 19.308594 -16.796875 21.113281 -11.980469 19.695312 -5.335938 C 18.503906 0.242188 15.367188 2.492188 12.160156 1.808594 Z M 11.539062 2.929688 C 18.042969 4.316406 22.582031 0.820312 23.976562 -5.707031 C 25.367188 -12.238281 22.664062 -17.335938 16.164062 -18.722656 C 9.714844 -20.101562 5.109375 -16.5625 3.714844 -10.03125 C 2.324219 -3.5 5.09375 1.554688 11.539062 2.929688 Z M 11.539062 2.929688 "/></g></g></g><g fill="#fef5ea" fill-opacity="1"><g transform="translate(206.780355, 306.599102)"><g><path d="M 19.445312 -8.183594 C 19.433594 -8.351562 19.34375 -8.402344 19.230469 -8.394531 L 19.144531 -8.390625 C 18.972656 -8.378906 18.949219 -8.320312 18.902344 -8.171875 C 17.839844 -3.347656 16.023438 -1.933594 13.066406 -1.722656 C 8.765625 -1.421875 5.3125 -4.980469 4.800781 -12.210938 C 4.394531 -17.960938 6.753906 -20.988281 10.566406 -21.257812 C 13.785156 -21.484375 16.183594 -20.335938 18.023438 -16.546875 C 18.089844 -16.4375 18.183594 -16.332031 18.351562 -16.34375 L 18.464844 -16.351562 C 18.605469 -16.390625 18.632812 -16.449219 18.625 -16.5625 L 18.613281 -16.675781 C 18.316406 -18.058594 17.808594 -20.421875 17.535156 -21.863281 C 17.488281 -22.117188 17.425781 -22.171875 17.226562 -22.15625 C 17.085938 -22.144531 16.941406 -22.136719 16.714844 -22.089844 C 16.605469 -22.054688 16.460938 -22.042969 16.320312 -22.035156 C 15.894531 -22.003906 15.40625 -22.027344 15.082031 -22.117188 C 14.003906 -22.441406 11.589844 -22.558594 10.3125 -22.46875 C 3.851562 -22.011719 0.332031 -17.128906 0.789062 -10.695312 C 1.253906 -4.09375 5.382812 0.078125 12.46875 -0.425781 C 14.917969 -0.597656 17.578125 -1.386719 19.121094 -2.210938 C 19.480469 -2.40625 19.585938 -2.558594 19.574219 -2.726562 C 19.492188 -3.867188 19.402344 -6.378906 19.449219 -8.097656 Z M 19.445312 -8.183594 "/></g></g></g><g fill="#fef5ea" fill-opacity="1"><g transform="translate(235.248745, 303.563309)"><g><path d="M 8.972656 -10.984375 L 2.394531 -8.707031 L 2.765625 -18.285156 Z M 19.738281 -6.824219 C 19.929688 -6.890625 19.953125 -6.992188 19.890625 -7.179688 C 19.824219 -7.367188 19.75 -7.402344 19.527344 -7.355469 C 18.464844 -7.109375 17.433594 -7.296875 16.902344 -7.867188 L 3.015625 -23.324219 C 2.675781 -23.6875 2.488281 -23.804688 2.109375 -23.675781 C 1.703125 -23.535156 1.625 -23.324219 1.621094 -22.902344 L 0.808594 -3.511719 C 0.761719 -2.074219 0.394531 -1.132812 -0.960938 -0.242188 C -1.15625 -0.113281 -1.199219 -0.0664062 -1.125 0.148438 C -1.0625 0.335938 -0.996094 0.34375 -0.675781 0.234375 L 5.257812 -1.816406 C 5.527344 -1.910156 5.625 -1.976562 5.5625 -2.164062 C 5.488281 -2.378906 5.414062 -2.414062 5.1875 -2.367188 C 3.332031 -2.148438 2.582031 -2.402344 2.328125 -3.128906 C 2.246094 -3.371094 2.214844 -3.632812 2.21875 -3.96875 L 2.363281 -7.488281 L 9.75 -10.042969 L 12.996094 -6.246094 C 13.058594 -6.144531 13.117188 -6.074219 13.144531 -5.992188 C 13.273438 -5.617188 12.925781 -5.222656 11.8125 -4.6875 C 11.5 -4.550781 11.472656 -4.449219 11.546875 -4.234375 C 11.59375 -4.101562 11.675781 -4.039062 11.890625 -4.113281 Z M 19.738281 -6.824219 "/></g></g></g><g fill="#fef5ea" fill-opacity="1"><g transform="translate(260.918551, 293.766745)"><g><path d="M 12.730469 -16.820312 C 12.632812 -16.964844 12.53125 -16.964844 12.4375 -16.898438 L 12.367188 -16.851562 C 12.222656 -16.753906 12.230469 -16.691406 12.265625 -16.542969 C 13.761719 -11.835938 12.902344 -9.699219 10.441406 -8.035156 C 6.875 -5.621094 2.101562 -6.972656 -1.960938 -12.972656 C -5.195312 -17.746094 -4.667969 -21.546875 -1.5 -23.691406 C 1.167969 -25.5 3.816406 -25.707031 7.308594 -23.351562 C 7.421875 -23.289062 7.554688 -23.242188 7.695312 -23.339844 L 7.792969 -23.402344 C 7.894531 -23.507812 7.886719 -23.570312 7.820312 -23.664062 L 7.757812 -23.757812 C 6.808594 -24.804688 5.179688 -26.597656 4.222656 -27.707031 C 4.054688 -27.902344 3.976562 -27.917969 3.8125 -27.804688 C 3.691406 -27.726562 3.574219 -27.644531 3.402344 -27.492188 C 3.324219 -27.40625 3.203125 -27.324219 3.085938 -27.246094 C 2.730469 -27.007812 2.296875 -26.78125 1.976562 -26.699219 C 0.875 -26.4375 -1.269531 -25.332031 -2.332031 -24.609375 C -7.695312 -20.980469 -8.292969 -14.992188 -4.675781 -9.652344 C -0.964844 -4.171875 4.699219 -2.628906 10.582031 -6.613281 C 12.613281 -7.988281 14.519531 -10.003906 15.445312 -11.492188 C 15.65625 -11.84375 15.667969 -12.023438 15.574219 -12.164062 C 14.933594 -13.109375 13.597656 -15.238281 12.777344 -16.75 Z M 12.730469 -16.820312 "/></g></g></g><g fill="#fef5ea" fill-opacity="1"><g transform="translate(283.414489, 276.997656)"><g><path d="M 6.621094 -6.933594 C 6.757812 -7.078125 6.777344 -7.179688 6.632812 -7.320312 C 6.488281 -7.457031 6.347656 -7.390625 6.246094 -7.328125 C 4.980469 -6.332031 4.382812 -5.996094 3.824219 -6.527344 L -9.011719 -18.78125 C -9.570312 -19.3125 -9.261719 -19.925781 -8.324219 -21.238281 C -8.265625 -21.339844 -8.167969 -21.445312 -8.351562 -21.621094 C -8.496094 -21.761719 -8.597656 -21.738281 -8.734375 -21.59375 L -14.488281 -15.566406 C -14.664062 -15.378906 -14.644531 -15.320312 -14.5 -15.183594 C -14.3125 -15.003906 -14.253906 -15.066406 -14.117188 -15.171875 C -12.847656 -16.167969 -12.25 -16.507812 -11.691406 -15.972656 L 1.144531 -3.71875 C 1.703125 -3.1875 1.394531 -2.574219 0.453125 -1.261719 C 0.359375 -1.117188 0.339844 -1.015625 0.484375 -0.878906 C 0.628906 -0.742188 0.730469 -0.761719 0.867188 -0.90625 Z M 6.621094 -6.933594 "/></g></g></g><g fill="#fef5ea" fill-opacity="1"><g transform="translate(295.329545, 264.229826)"><g><path d="M 0.0273438 -14.183594 L -3.640625 -8.265625 L -9.394531 -15.929688 Z M 11.003906 -17.753906 C 11.109375 -17.921875 11.066406 -18.015625 10.894531 -18.121094 C 10.726562 -18.226562 10.648438 -18.207031 10.503906 -18.027344 C 9.835938 -17.167969 8.917969 -16.660156 8.144531 -16.769531 L -12.382812 -19.996094 C -12.875 -20.066406 -13.09375 -20.035156 -13.304688 -19.695312 C -13.53125 -19.332031 -13.460938 -19.121094 -13.195312 -18.789062 L -1.585938 -3.234375 C -0.71875 -2.089844 -0.410156 -1.125 -0.898438 0.417969 C -0.96875 0.640625 -0.972656 0.707031 -0.78125 0.824219 C -0.609375 0.929688 -0.554688 0.898438 -0.375 0.605469 L 2.929688 -4.730469 C 3.082031 -4.972656 3.117188 -5.082031 2.949219 -5.1875 C 2.753906 -5.308594 2.675781 -5.289062 2.53125 -5.113281 C 1.230469 -3.769531 0.484375 -3.492188 -0.167969 -3.898438 C -0.386719 -4.035156 -0.574219 -4.21875 -0.78125 -4.480469 L -2.894531 -7.300781 L 1.222656 -13.945312 L 6.140625 -13.046875 C 6.25 -13.011719 6.339844 -12.988281 6.414062 -12.945312 C 6.75 -12.734375 6.730469 -12.210938 6.203125 -11.09375 C 6.046875 -10.785156 6.089844 -10.691406 6.285156 -10.574219 C 6.40625 -10.496094 6.507812 -10.5 6.628906 -10.695312 Z M 11.003906 -17.753906 "/></g></g></g><g fill="#012130" fill-opacity="1"><g transform="translate(90.95898, 205.910445)"><g><path d="M 12.378906 0 C 12.589844 0 12.636719 -0.09375 12.683594 -0.351562 C 12.730469 -0.703125 12.777344 -1.148438 12.871094 -1.640625 C 13.011719 -2.554688 13.246094 -3.65625 13.527344 -4.734375 C 13.527344 -4.757812 13.550781 -4.78125 13.550781 -4.78125 C 13.550781 -4.851562 13.480469 -4.898438 13.363281 -4.921875 C 13.316406 -4.945312 13.269531 -4.945312 13.222656 -4.945312 C 13.152344 -4.945312 13.105469 -4.898438 13.058594 -4.828125 C 12.050781 -2.859375 10.785156 -2.789062 8.839844 -2.625 C 7.382812 -2.484375 5.625 -2.484375 4.59375 -2.484375 L 3.773438 -2.484375 C 4.453125 -4.007812 5.882812 -5.71875 7.996094 -6.796875 C 11.980469 -8.863281 13.152344 -10.527344 13.152344 -13.105469 C 13.152344 -15.894531 10.949219 -17.816406 7.382812 -17.816406 C 3.75 -17.816406 1.898438 -15.589844 1.898438 -13.363281 C 1.898438 -12.355469 2.414062 -11.511719 3.5625 -11.511719 C 4.5 -11.511719 5.15625 -12.261719 5.15625 -13.035156 L 5.15625 -13.058594 C 5.15625 -13.808594 4.546875 -14.230469 4.546875 -15.050781 C 4.546875 -16.105469 5.4375 -16.738281 7.007812 -16.738281 C 8.699219 -16.738281 10.035156 -15.496094 10.035156 -13.269531 C 10.035156 -11.605469 9.332031 -9.847656 7.078125 -8.136719 C 3.84375 -5.671875 2.34375 -3.492188 1.40625 -0.914062 C 1.3125 -0.65625 1.21875 -0.421875 1.21875 -0.257812 C 1.21875 -0.09375 1.3125 0 1.476562 0 Z M 12.378906 0 "/></g></g></g><g fill="#012130" fill-opacity="1"><g transform="translate(109.97115, 205.910445)"><g><path d="M 7.667969 -0.726562 C 5.648438 -0.726562 4.617188 -3.375 4.617188 -8.699219 C 4.617188 -13.855469 5.648438 -16.785156 7.667969 -16.785156 C 9.683594 -16.785156 10.714844 -13.855469 10.714844 -8.699219 C 10.714844 -3.375 9.683594 -0.726562 7.667969 -0.726562 Z M 7.667969 0.375 C 12.378906 0.375 13.902344 -4.078125 13.902344 -8.722656 C 13.902344 -13.574219 12.378906 -17.816406 7.667969 -17.816406 C 2.929688 -17.816406 1.476562 -13.222656 1.476562 -8.722656 C 1.476562 -3.679688 3 0.375 7.667969 0.375 Z M 7.667969 0.375 "/></g></g></g><g fill="#012130" fill-opacity="1"><g transform="translate(294.657509, 205.910445)"><g><path d="M 11.605469 0 C 11.839844 0 11.886719 -0.0234375 11.886719 -0.1875 C 11.886719 -0.375 11.839844 -0.421875 11.652344 -0.445312 C 10.128906 -0.609375 9.472656 -0.609375 9.472656 -1.570312 L 9.472656 -17.488281 C 9.472656 -17.675781 9.355469 -17.816406 9.238281 -17.816406 C 9.191406 -17.816406 9.167969 -17.816406 9.144531 -17.792969 C 7.761719 -17.183594 5.859375 -16.292969 4.148438 -15.636719 C 4.007812 -15.589844 3.960938 -15.472656 3.960938 -15.332031 C 3.960938 -15.167969 4.054688 -15.003906 4.21875 -15.003906 C 4.265625 -15.003906 4.289062 -15.003906 4.335938 -15.027344 C 5.132812 -15.355469 5.625 -15.519531 5.90625 -15.519531 C 6.140625 -15.519531 6.234375 -15.402344 6.234375 -15.121094 L 6.234375 -1.570312 C 6.234375 -0.9375 5.554688 -0.632812 3.984375 -0.445312 C 3.84375 -0.421875 3.75 -0.375 3.75 -0.1875 C 3.75 -0.0234375 3.84375 0 4.054688 0 Z M 11.605469 0 "/></g></g></g><g fill="#012130" fill-opacity="1"><g transform="translate(313.669678, 205.910445)"><g><path d="M 13.808594 -4.6875 C 13.808594 -7.3125 11.605469 -9.332031 8.863281 -9.355469 C 8.605469 -9.355469 8.488281 -9.378906 8.488281 -9.425781 C 8.488281 -9.449219 8.605469 -9.472656 8.839844 -9.496094 C 11.511719 -9.660156 13.105469 -11.042969 13.105469 -13.621094 C 13.105469 -15.917969 11.207031 -17.816406 7.453125 -17.816406 C 4.3125 -17.816406 2.015625 -16.058594 2.015625 -14.113281 C 2.015625 -13.222656 2.484375 -12.519531 3.585938 -12.519531 C 4.570312 -12.519531 5.0625 -13.058594 5.0625 -13.832031 C 5.0625 -14.347656 4.6875 -14.699219 4.6875 -15.472656 C 4.6875 -16.222656 5.742188 -16.785156 7.054688 -16.785156 C 8.792969 -16.785156 10.269531 -15.425781 10.269531 -13.480469 C 10.269531 -10.761719 8.558594 -9.941406 5.671875 -9.824219 C 5.226562 -9.800781 5.039062 -9.730469 5.039062 -9.402344 C 5.039062 -9.050781 5.273438 -8.957031 5.578125 -8.957031 C 9.074219 -8.886719 10.667969 -7.242188 10.667969 -4.21875 C 10.667969 -2.015625 9.332031 -0.65625 7.429688 -0.65625 C 3.351562 -0.65625 5.554688 -5.039062 2.882812 -5.039062 C 1.828125 -5.039062 1.546875 -4.148438 1.546875 -3.375 C 1.546875 -1.5 3.539062 0.375 7.523438 0.375 C 11.488281 0.375 13.808594 -1.359375 13.808594 -4.6875 Z M 13.808594 -4.6875 "/></g></g></g></svg>